<?xml version="1.0" encoding="utf-8"?>
<!-- Generator: Adobe Illustrator 25.3.1, SVG Export Plug-In . SVG Version: 6.00 Build 0)  -->
<svg version="1.1" id="Layer_1" xmlns="http://www.w3.org/2000/svg" xmlns:xlink="http://www.w3.org/1999/xlink" x="0px" y="0px"
	 viewBox="0 0 2048 2048" style="enable-background:new 0 0 2048 2048;" xml:space="preserve">
<style type="text/css">
	.st0{fill:url(#SVGID_1_);}
	.st1{fill:#024B97;}
	.st2{fill:#2664A3;}
	.st3{fill:#51B4F2;}
	.st4{fill:#3A80BA;}
	.st5{fill:#0C4E89;}
	.st6{fill:#0A5CA5;}
	.st7{fill:#0A5599;}
	.st8{fill:#0E387C;}
	.st9{fill:#164993;}
	.st10{fill:#093C6B;}
</style>
<g>
	<g>
		<linearGradient id="SVGID_1_" gradientUnits="userSpaceOnUse" x1="120.875" y1="1024" x2="1925.1951" y2="1024">
			<stop  offset="0" style="stop-color:#00176D"/>
			<stop  offset="1" style="stop-color:#0473B8"/>
		</linearGradient>
		<rect x="120.87" y="624.52" class="st0" width="1804.32" height="798.96"/>
		<path class="st1" d="M1833.11,841.93h-1.21v27.15c0.08-0.09,0.15-0.17,0.24-0.26c0.07-0.07,0.14-0.14,0.22-0.21
			c0.21-0.2,0.43-0.38,0.67-0.55c0.06-0.05,0.13-0.1,0.2-0.14c0.3-0.21,0.62-0.38,0.95-0.53V843L1833.11,841.93z M1833.22,815.32
			l-1.32-1.32v18.54h2.28v-17.22H1833.22z M1809.36,791.46h-60.84l-2.27,2.27h65.38L1809.36,791.46z M1722.95,738.63v40.66h2.28
			v-38.38L1722.95,738.63z M1722.95,904.86v90.05c0.33-0.33,0.79-0.54,1.3-0.54h0.98v-89.51H1722.95z M1725.22,791.46v-50.55
			l-2.28-2.28v52.83h-106.68v-91.34c-0.02-0.01-0.04-0.01-0.06-0.02c-0.13-0.03-0.27-0.06-0.4-0.1c-0.64-0.18-1.25-0.44-1.82-0.77
			v92.23h-46.02l2.27,2.27h43.75v43.74l2.28,2.28v-46.02h106.68v19l2.28-2.28v-16.72h21.03l2.27-2.27H1725.22z M677.9,1118.34
			h-42.29v-42.29l-2.27-2.27v44.56H526.65v-49.2h-2.28v49.2h-70.98l-2.27,2.27h73.25v32.33l2.28,2.28v-34.61h106.69v77.46h0.8
			c0.58,0,1.1,0.25,1.47,0.65v-78.11h44.56L677.9,1118.34z M524.38,1256.85v15.27h2.28v-15.27H524.38z M415.41,1260.32v37.48h2.28
			v-37.48H415.41z M418.28,1118.34l-2.87,2.87v18.9h2.28v-19.5h33.43l2.27-2.27H418.28z M415.41,1161.95v14.84l0.35,0.35l-0.35,0.35
			v2.86h2.28v-20.68L415.41,1161.95z M415.41,1260.32v45h2.28v-45H415.41z M306.45,810.9v82.41h2.28V810.9H306.45z M415.41,1140.11
			v21.84l2.28-2.28v-19.56H415.41z M415.41,1176.79v0.7l0.35-0.35L415.41,1176.79z M415.41,1140.11v21.84l2.28-2.28v-19.56H415.41z
			 M415.41,1176.79v0.7l0.35-0.35L415.41,1176.79z M306.45,1129.75v70.57l2.28,2.28v-72.85H306.45z M415.41,1176.79v0.7l0.35-0.35
			L415.41,1176.79z M415.41,1140.11v16.22l2.28-2.28v-13.94H415.41z M1833.11,841.93h-1.21v27.15c0.08-0.09,0.15-0.17,0.24-0.26
			c0.07-0.07,0.14-0.14,0.22-0.21c0.21-0.2,0.43-0.38,0.67-0.55c0.06-0.05,0.13-0.1,0.2-0.14c0.3-0.21,0.62-0.38,0.95-0.53V843
			L1833.11,841.93z M1833.22,815.32l-1.32-1.32v18.54h2.28v-17.22H1833.22z M1809.36,791.46h-60.84l-2.27,2.27h65.38L1809.36,791.46
			z M1722.95,904.86v90.05c0.33-0.33,0.79-0.54,1.3-0.54h0.98v-89.51H1722.95z M1725.22,791.46v-50.55l-2.28-2.28v52.83h-106.68
			v-91.34c-0.02-0.01-0.04-0.01-0.06-0.02c-0.13-0.03-0.27-0.06-0.4-0.1c-0.64-0.18-1.25-0.44-1.82-0.77v92.23h-46.02l2.27,2.27
			h43.75v43.74l2.28,2.28v-46.02h106.68v19l2.28-2.28v-16.72h21.03l2.27-2.27H1725.22z M524.38,1256.85v15.27h2.28v-15.27H524.38z
			 M415.41,1260.32v45h2.28v-45H415.41z M306.45,1129.75v70.57l2.28,2.28v-72.85H306.45z M362.1,1118.34l2.27,2.27h44.75l2.27-2.27
			H362.1z M306.45,1027.74v47l2.28,2.28v-47L306.45,1027.74z M306.45,810.9v82.41h2.28V810.9H306.45z M418.28,1118.34l-2.87,2.87
			v18.9h2.28v-19.5h33.43l2.27-2.27H418.28z M362.1,1118.34l2.27,2.27h44.75l2.27-2.27H362.1z M306.45,1070.45v4.29l2.28,2.28v-6.57
			H306.45z M415.41,1140.11v16.22l2.28-2.28v-13.94H415.41z M415.41,1176.79v0.7l0.35-0.35L415.41,1176.79z M415.41,1156.33v20.46
			l0.35,0.35l-0.35,0.35v2.86h2.28v-26.3L415.41,1156.33z M677.9,1118.34h-42.29v-42.29l-2.27-2.27v44.56H526.65v-49.2h-2.28v49.2
			h-70.98l-2.27,2.27h73.25v32.33l2.28,2.28v-34.61h106.69v77.46h0.8c0.58,0,1.1,0.25,1.47,0.65v-78.11h44.56L677.9,1118.34z
			 M1833.11,841.93h-1.21v27.15c0.08-0.09,0.15-0.17,0.24-0.26c0.07-0.07,0.14-0.14,0.22-0.21c0.21-0.2,0.43-0.38,0.67-0.55
			c0.06-0.05,0.13-0.1,0.2-0.14c0.3-0.21,0.62-0.38,0.95-0.53V843L1833.11,841.93z M1833.22,815.32l-1.32-1.32v18.54h2.28v-17.22
			H1833.22z M1809.36,791.46h-60.84l-2.27,2.27h65.38L1809.36,791.46z M1722.95,904.86v90.05c0.33-0.33,0.79-0.54,1.3-0.54h0.98
			v-89.51H1722.95z M1725.22,791.46v-50.55l-2.28-2.28v52.83h-106.68v-91.34c-0.02-0.01-0.04-0.01-0.06-0.02
			c-0.13-0.03-0.27-0.06-0.4-0.1c-0.64-0.18-1.25-0.44-1.82-0.77v92.23h-46.02l2.27,2.27h43.75v43.74l2.28,2.28v-46.02h106.68v19
			l2.28-2.28v-16.72h21.03l2.27-2.27H1725.22z M524.38,1256.85v15.27h2.28v-15.27H524.38z M415.41,1260.32v45h2.28v-45H415.41z
			 M306.45,1317.02v15.47h2.28v-13.19L306.45,1317.02z M306.45,1129.75v69.14h2.28v-69.14H306.45z M306.45,1027.74v47l2.28,2.28v-47
			L306.45,1027.74z M306.45,810.9v82.41h2.28V810.9H306.45z M418.28,1118.34l-2.87,2.87v18.9h2.28v-19.5h33.43l2.27-2.27H418.28z
			 M415.41,1140.11v16.22l2.28-2.28v-13.94H415.41z M415.41,1176.79v0.7l0.35-0.35L415.41,1176.79z M415.41,1156.33v20.46l0.35,0.35
			l-0.35,0.35v2.86h2.28v-26.3L415.41,1156.33z M677.9,1118.34h-42.29v-42.29l-2.27-2.27v44.56H526.65v-49.2h-2.28v49.2h-70.98
			l-2.27,2.27h73.25v32.33l2.28,2.28v-34.61h106.69v77.46h0.8c0.58,0,1.1,0.25,1.47,0.65v-78.11h44.56L677.9,1118.34z
			 M1833.11,841.93h-1.21v27.15c0.08-0.09,0.15-0.17,0.24-0.26c0.07-0.07,0.14-0.14,0.22-0.21c0.21-0.2,0.43-0.38,0.67-0.55
			c0.06-0.05,0.13-0.1,0.2-0.14c0.3-0.21,0.62-0.38,0.95-0.53V843L1833.11,841.93z M1833.22,815.32l-1.32-1.32v18.54h2.28v-17.22
			H1833.22z M1809.36,791.46h-60.84l-2.27,2.27h65.38L1809.36,791.46z M1722.95,904.86v90.05c0.33-0.33,0.79-0.54,1.3-0.54h0.98
			v-89.51H1722.95z M1725.22,791.46v-50.55l-2.28-2.28v52.83h-106.68v-91.34c-0.02-0.01-0.04-0.01-0.06-0.02
			c-0.13-0.03-0.27-0.06-0.4-0.1c-0.64-0.18-1.25-0.44-1.82-0.77v92.23h-46.02l2.27,2.27h43.75v43.74l2.28,2.28v-46.02h106.68v19
			l2.28-2.28v-16.72h21.03l2.27-2.27H1725.22z M524.38,1256.85v15.27h2.28v-15.27H524.38z M415.41,1260.32v45h2.28v-45H415.41z
			 M306.45,1317.02v15.47h2.28v-13.19L306.45,1317.02z M306.45,1129.75v69.14h2.28v-69.14H306.45z M306.45,1027.74v47l2.28,2.28v-47
			L306.45,1027.74z M306.45,810.9v82.41h2.28V810.9H306.45z M418.28,1118.34l-2.87,2.87v18.9h2.28v-19.5h33.43l2.27-2.27H418.28z
			 M415.41,1140.11v16.22l2.28-2.28v-13.94H415.41z M415.41,1176.79v0.7l0.35-0.35L415.41,1176.79z M415.41,1156.33v20.46l0.35,0.35
			l-0.35,0.35v2.86h2.28v-26.3L415.41,1156.33z M677.9,1118.34h-42.29v-42.29l-2.27-2.27v44.56H526.65v-49.2h-2.28v49.2h-70.98
			l-2.27,2.27h73.25v32.33l2.28,2.28v-34.61h106.69v77.46h0.8c0.58,0,1.1,0.25,1.47,0.65v-78.11h44.56L677.9,1118.34z
			 M1833.11,841.93h-1.21v27.15c0.08-0.09,0.15-0.17,0.24-0.26c0.07-0.07,0.14-0.14,0.22-0.21c0.21-0.2,0.43-0.38,0.67-0.55
			c0.06-0.05,0.13-0.1,0.2-0.14c0.3-0.21,0.62-0.38,0.95-0.53V843L1833.11,841.93z M1833.22,815.32l-1.32-1.32v18.54h2.28v-17.22
			H1833.22z M1809.36,791.46h-60.84l-2.27,2.27h65.38L1809.36,791.46z M1722.95,904.86v90.05c0.33-0.33,0.79-0.54,1.3-0.54h0.98
			v-89.51H1722.95z M1725.22,791.46v-50.55l-2.28-2.28v52.83h-106.68v-91.34c-0.02-0.01-0.04-0.01-0.06-0.02
			c-0.13-0.03-0.27-0.06-0.4-0.1c-0.64-0.18-1.25-0.44-1.82-0.77v92.23h-46.02l2.27,2.27h43.75v43.74l2.28,2.28v-46.02h106.68v19
			l2.28-2.28v-16.72h21.03l2.27-2.27H1725.22z M524.38,1256.85v15.27h2.28v-15.27H524.38z M415.41,1260.32v45h2.28v-45H415.41z
			 M306.45,1317.02v15.47h2.28v-13.19L306.45,1317.02z M306.45,1129.75v69.14h2.28v-69.14H306.45z M306.45,1027.74v47l2.28,2.28v-47
			L306.45,1027.74z M306.45,810.9v82.41h2.28V810.9H306.45z M418.28,1118.34l-2.87,2.87v18.9h2.28v-19.5h33.43l2.27-2.27H418.28z
			 M415.41,1140.11v16.22l2.28-2.28v-13.94H415.41z M415.41,1176.79v0.7l0.35-0.35L415.41,1176.79z M415.41,1156.33v20.46l0.35,0.35
			l-0.35,0.35v2.86h2.28v-26.3L415.41,1156.33z M677.9,1118.34h-42.29v-42.29l-2.27-2.27v44.56H526.65v-49.2h-2.28v49.2h-70.98
			l-2.27,2.27h73.25v32.33l2.28,2.28v-34.61h106.69v77.46h0.8c0.58,0,1.1,0.25,1.47,0.65v-78.11h44.56L677.9,1118.34z
			 M1833.11,841.93h-1.21v27.15c0.08-0.09,0.15-0.17,0.24-0.26c0.07-0.07,0.14-0.14,0.22-0.21c0.21-0.2,0.43-0.38,0.67-0.55
			c0.06-0.05,0.13-0.1,0.2-0.14c0.3-0.21,0.62-0.38,0.95-0.53V843L1833.11,841.93z M1833.22,815.32l-1.32-1.32v18.54h2.28v-17.22
			H1833.22z M1809.36,791.46h-60.84l-2.27,2.27h65.38L1809.36,791.46z M1722.95,904.86v90.05c0.33-0.33,0.79-0.54,1.3-0.54h0.98
			v-89.51H1722.95z M1725.22,791.46v-50.55l-2.28-2.28v52.83h-106.68v-91.34c-0.02-0.01-0.04-0.01-0.06-0.02
			c-0.13-0.03-0.27-0.06-0.4-0.1c-0.64-0.18-1.25-0.44-1.82-0.77v92.23h-46.02l2.27,2.27h43.75v43.74l2.28,2.28v-46.02h106.68v19
			l2.28-2.28v-16.72h21.03l2.27-2.27H1725.22z M524.38,1256.85v15.27h2.28v-15.27H524.38z M415.41,1260.32v45h2.28v-45H415.41z
			 M306.45,1317.02v15.47h2.28v-13.19L306.45,1317.02z M306.45,1129.75v69.14h2.28v-69.14H306.45z M306.45,1027.74v47l2.28,2.28v-47
			L306.45,1027.74z M306.45,810.9v82.41h2.28V810.9H306.45z M418.28,1118.34l-2.87,2.87v18.9h2.28v-19.5h33.43l2.27-2.27H418.28z
			 M415.41,1140.11v16.22l2.28-2.28v-13.94H415.41z M415.41,1176.79v0.7l0.35-0.35L415.41,1176.79z M415.41,1156.33v20.46l0.35,0.35
			l-0.35,0.35v2.86h2.28v-26.3L415.41,1156.33z M677.9,1118.34h-42.29v-42.29l-2.27-2.27v44.56H526.65v-49.2h-2.28v49.2h-70.98
			l-2.27,2.27h73.25v32.33l2.28,2.28v-34.61h106.69v77.46h0.8c0.58,0,1.1,0.25,1.47,0.65v-78.11h44.56L677.9,1118.34z
			 M1722.95,704.01v34.62l2.28,2.28v-39.18L1722.95,704.01z M1831.91,845.99v23.09c0.08-0.09,0.15-0.17,0.24-0.26
			c0.07-0.07,0.14-0.14,0.22-0.21c0.21-0.2,0.43-0.38,0.67-0.55c0.06-0.05,0.13-0.1,0.2-0.14c0.3-0.21,0.62-0.38,0.95-0.53v-19.12
			L1831.91,845.99z M1833.22,815.32l-1.32-1.32v18.54h2.28v-17.22H1833.22z M1809.36,791.46h-65.15l-2.27,2.27h69.69L1809.36,791.46
			z M1722.95,904.86v90.05c0.33-0.33,0.79-0.54,1.3-0.54h0.98v-89.51H1722.95z M1725.22,791.46v-50.55l-2.28-2.28v52.83h-106.68
			v-91.34c-0.02-0.01-0.04-0.01-0.06-0.02c-0.13-0.03-0.27-0.06-0.4-0.1c-0.64-0.18-1.25-0.44-1.82-0.77v92.23h-46.02l2.27,2.27
			h43.75v43.74l2.28,2.28v-46.02h106.68v19l2.28-2.28v-16.72h16.72l2.27-2.27H1725.22z M524.38,1256.85v15.27h2.28v-15.27H524.38z
			 M415.41,1260.32v45h2.28v-45H415.41z M306.45,1317.02v15.47h2.28v-13.19L306.45,1317.02z M306.45,1129.75v69.14h2.28v-69.14
			H306.45z M306.45,1027.74v47l2.28,2.28v-47L306.45,1027.74z M306.45,810.9v82.41h2.28V810.9H306.45z M418.28,1118.34l-2.87,2.87
			v18.9h2.28v-19.5h33.43l2.27-2.27H418.28z M415.41,1140.11v16.22l2.28-2.28v-13.94H415.41z M415.41,1176.79v0.7l0.35-0.35
			L415.41,1176.79z M415.41,1156.33v20.46l0.35,0.35l-0.35,0.35v2.86h2.28v-26.3L415.41,1156.33z M677.9,1118.34h-42.29v-42.29
			l-2.27-2.27v44.56H526.65v-49.2h-2.28v49.2h-70.98l-2.27,2.27h73.25v32.33l2.28,2.28v-34.61h106.69v77.46h0.8
			c0.58,0,1.1,0.25,1.47,0.65v-78.11h44.56L677.9,1118.34z M1722.95,704.01v34.62l2.28,2.28v-39.18L1722.95,704.01z M1831.91,845.99
			v23.09c0.08-0.09,0.15-0.17,0.24-0.26c0.07-0.07,0.14-0.14,0.22-0.21c0.21-0.2,0.43-0.38,0.67-0.55c0.06-0.05,0.13-0.1,0.2-0.14
			c0.3-0.21,0.62-0.38,0.95-0.53v-19.12L1831.91,845.99z M1833.22,815.32l-1.32-1.32v18.54h2.28v-17.22H1833.22z M1809.36,791.46
			h-65.15l-2.27,2.27h69.69L1809.36,791.46z M1722.95,904.86v90.05c0.33-0.33,0.79-0.54,1.3-0.54h0.98v-89.51H1722.95z
			 M1725.22,791.46v-50.55l-2.28-2.28v52.83h-106.68v-91.34c-0.02-0.01-0.04-0.01-0.06-0.02c-0.13-0.03-0.27-0.06-0.4-0.1
			c-0.64-0.18-1.25-0.44-1.82-0.77v92.23h-46.02l2.27,2.27h43.75v43.74l2.28,2.28v-46.02h106.68v19l2.28-2.28v-16.72h16.72
			l2.27-2.27H1725.22z M524.38,1256.85v15.27h2.28v-15.27H524.38z M415.41,1260.32v45h2.28v-45H415.41z M306.45,1317.02v15.47h2.28
			v-13.19L306.45,1317.02z M306.45,1129.75v69.14h2.28v-69.14H306.45z M306.45,1027.74v47l2.28,2.28v-47L306.45,1027.74z
			 M306.45,810.9v82.41h2.28V810.9H306.45z M418.28,1118.34l-2.87,2.87v18.9h2.28v-19.5h33.43l2.27-2.27H418.28z M415.41,1140.11
			v16.22l2.28-2.28v-13.94H415.41z M415.41,1176.79v0.7l0.35-0.35L415.41,1176.79z M415.41,1156.33v20.46l0.35,0.35l-0.35,0.35v2.86
			h2.28v-26.3L415.41,1156.33z M677.9,1118.34h-42.29v-42.29l-2.27-2.27v44.56H526.65v-49.2h-2.28v49.2h-70.98l-2.27,2.27h73.25
			v32.33l2.28,2.28v-34.61h106.69v77.46h0.8c0.58,0,1.1,0.25,1.47,0.65v-78.11h44.56L677.9,1118.34z M1831.91,845.99v23.09
			c0.08-0.09,0.15-0.17,0.24-0.26c0.07-0.07,0.14-0.14,0.22-0.21c0.21-0.2,0.43-0.38,0.67-0.55c0.06-0.05,0.13-0.1,0.2-0.14
			c0.3-0.21,0.62-0.38,0.95-0.53v-19.12L1831.91,845.99z M1833.22,815.32l-1.32-1.32v18.54h2.28v-17.22H1833.22z M1809.36,791.46
			h-65.15l-2.27,2.27h69.69L1809.36,791.46z M1722.95,904.86v90.05c0.33-0.33,0.79-0.54,1.3-0.54h0.98v-89.51H1722.95z
			 M1725.22,791.46v-50.55l-2.28-2.28v52.83h-106.68v-91.34c-0.02-0.01-0.04-0.01-0.06-0.02c-0.13-0.03-0.27-0.06-0.4-0.1
			c-0.64-0.18-1.25-0.44-1.82-0.77v92.23h-46.02l2.27,2.27h43.75v43.74l2.28,2.28v-46.02h106.68v19l2.28-2.28v-16.72h16.72
			l2.27-2.27H1725.22z M524.38,1256.85v15.27h2.28v-15.27H524.38z M415.41,1260.32v45h2.28v-45H415.41z M306.45,1317.02v15.47h2.28
			v-13.19L306.45,1317.02z M302.48,901.88h-55.2l-0.81,0.81h56.82L302.48,901.88z M306.45,810.9v82.41h2.28V810.9H306.45z
			 M633.34,1024.41v49.37l2.27,2.27v-51.64H633.34z M409.98,1009.38h-73c0.11,0.07,0.21,0.15,0.32,0.24
			c0.05,0.04,0.1,0.08,0.16,0.13c0.47,0.39,0.91,0.83,1.3,1.32c0.11,0.13,0.22,0.28,0.31,0.42c0.04,0.05,0.08,0.1,0.11,0.16h73.07
			L409.98,1009.38z M415.41,1140.11v44.24h0.04l0.31-0.31l1.93-1.94v-3.02l-1.37-1.37l-0.56-0.57l1.93-1.93v-35.1H415.41z
			 M415.76,1177.14l0.56,0.57l1.37,1.37v-3.87L415.76,1177.14z M633.34,1155.29v42.78h0.8c0.58,0,1.1,0.25,1.47,0.65v-45.69
			L633.34,1155.29z M1722.95,704.01v34.62l2.28,2.28v-39.18L1722.95,704.01z M1833.22,815.32l-1.32-1.32v18.54h2.28v-17.22H1833.22z
			 M1732.34,791.46l-2.27,2.27h81.56l-2.27-2.27H1732.34z M1722.95,841.93h2.28v-43.35l-2.28,2.28V841.93z M1725.22,791.46v-50.55
			l-2.28-2.28v52.83h-106.68v-91.34c-0.02-0.01-0.04-0.01-0.06-0.02c-0.13-0.03-0.27-0.06-0.4-0.1c-0.64-0.18-1.25-0.44-1.82-0.77
			v92.23h-46.02l2.27,2.27h43.75v43.74l2.28,2.28v-46.02h106.68v7.13l2.28-2.28v-4.85h4.85l2.27-2.27H1725.22z M1722.95,904.86
			v90.05c0.33-0.33,0.79-0.54,1.3-0.54h0.98v-89.51H1722.95z M524.38,1256.85v15.27h2.28v-15.27H524.38z M415.41,1260.32v45h2.28
			v-45H415.41z M306.45,1317.02v15.47h2.28v-13.19L306.45,1317.02z M302.48,901.88h-55.2l-0.81,0.81h56.82L302.48,901.88z
			 M306.45,810.9v82.41h2.28V810.9H306.45z M633.34,1155.29v42.78h0.8c0.58,0,1.1,0.25,1.47,0.65v-45.69L633.34,1155.29z
			 M409.98,1009.38h-73c0.11,0.07,0.21,0.15,0.32,0.24c0.05,0.04,0.1,0.08,0.16,0.13c0.47,0.39,0.91,0.83,1.3,1.32
			c0.11,0.13,0.22,0.28,0.31,0.42c0.04,0.05,0.08,0.1,0.11,0.16h73.07L409.98,1009.38z M415.41,1140.11v44.24h0.04l0.31-0.31
			l1.93-1.94v-3.02l-1.37-1.37l-0.56-0.57l1.93-1.93v-35.1H415.41z M415.76,1177.14l0.56,0.57l1.37,1.37v-3.87L415.76,1177.14z
			 M633.34,1024.41v49.37l2.27,2.27v-51.64H633.34z M1834.19,682.5v-57.98h-2.28v57.98h-106.68v-57.98h-2.28v57.98h-106.68v-57.98
			h-2.28v57.98H1507.3v-57.98h-2.28v57.98h-106.69v-57.98h-2.27v57.98h-106.69v-57.98h-2.27v57.98h-106.69v-57.98h-2.27v57.98
			h-106.69v-57.98h-2.27v57.98H962.49v-57.98h-2.27v57.98H853.53v-57.98h-2.27v57.98H744.57v-57.98h-2.27v57.98H635.61v-57.98h-2.27
			v57.98H526.65v-57.98h-2.28v57.98H417.69v-57.98h-2.28v57.98H308.73v-57.98h-2.28v57.98H199.77v-57.98h-2.28v57.98h-76.62v2.27
			h76.62v106.69h-76.62v2.27h76.62v106.69h-76.62v2.27h76.62v106.69h-76.62v2.27h76.62v106.69h-76.62v2.27h76.62v106.69h-76.62v2.28
			h76.62v106.68h-76.62v2.28h76.62v84.94h2.28v-84.94h106.68v84.94h2.28v-84.94h106.68v84.94h2.28v-84.94h106.68v84.94h2.28v-84.94
			h106.69v84.94h2.27v-84.94H742.3v84.94h2.27v-84.94h106.69v84.94h2.27v-84.94h106.69v84.94h2.27v-84.94h106.69v84.94h2.27v-84.94
			h106.69v84.94h2.27v-84.94h106.69v84.94h2.27v-84.94h106.69v84.94h2.27v-84.94h106.69v84.94h2.28v-84.94h106.68v84.94h2.28v-84.94
			h106.68v84.94h2.28v-84.94h106.68v84.94h2.28v-84.94h91.01v-2.28h-91.01v-106.68h91.01v-2.28h-91.01v-106.68h91.01v-2.28h-91.01
			v-106.69h91.01v-2.27h-91.01V902.69h91.01v-2.27h-91.01V793.73h91.01v-2.27h-91.01V684.77h91.01v-2.27H1834.19z M744.57,684.77
			h106.69v106.69H744.57V684.77z M744.57,793.73h106.69v106.69H744.57V793.73z M744.57,902.69h106.69v106.69H744.57V902.69z
			 M742.3,1118.34H635.61v-106.69H742.3V1118.34z M524.38,1227.3H417.69v-106.69h106.68V1227.3z M415.41,1227.3H308.73v-106.69
			h106.68V1227.3z M308.73,1011.65h106.68v106.69H308.73V1011.65z M308.73,902.69h106.68v106.69H308.73V902.69z M417.69,902.69
			h106.68v106.69H417.69V902.69z M633.34,1118.34H526.65v-106.69h106.69V1118.34z M524.38,1118.34H417.69v-106.69h106.68V1118.34z
			 M526.65,1120.61h106.69v106.69H526.65V1120.61z M635.61,1120.61H742.3v106.69H635.61V1120.61z M635.61,684.77H742.3v106.69
			H635.61V684.77z M635.61,793.73H742.3v106.69H635.61V793.73z M635.61,902.69H742.3v106.69H635.61V902.69z M526.65,684.77h106.69
			v106.69H526.65V684.77z M526.65,793.73h106.69v106.69H526.65V793.73z M526.65,902.69h106.69v106.69H526.65V902.69z M417.69,684.77
			h106.68v106.69H417.69V684.77z M417.69,793.73h106.68v106.69H417.69V793.73z M308.73,684.77h106.68v106.69H308.73V684.77z
			 M308.73,793.73h106.68v106.69H308.73V793.73z M199.77,684.77h106.68v106.69H199.77V684.77z M199.77,793.73h106.68v106.69H199.77
			V793.73z M199.77,902.69h106.68v106.69H199.77V902.69z M199.77,1011.65h106.68v106.69H199.77V1011.65z M199.77,1120.61h106.68
			v106.69H199.77V1120.61z M199.77,1336.26v-106.68h106.68v106.68H199.77z M308.73,1336.26v-106.68h106.68v106.68H308.73z
			 M417.69,1336.26v-106.68h106.68v106.68H417.69z M526.65,1336.26v-106.68h106.69v106.68H526.65z M742.3,1336.26H635.61v-106.68
			H742.3V1336.26z M851.26,1336.26H744.57v-106.68h106.69V1336.26z M851.26,1227.3H744.57v-106.69h106.69V1227.3z M851.26,1118.34
			H744.57v-106.69h106.69V1118.34z M960.22,1336.26H853.53v-106.68h106.69V1336.26z M960.22,1227.3H853.53v-106.69h106.69V1227.3z
			 M960.22,1118.34H853.53v-106.69h106.69V1118.34z M960.22,1009.38H853.53V902.69h106.69V1009.38z M960.22,900.42H853.53V793.73
			h106.69V900.42z M960.22,791.46H853.53V684.77h106.69V791.46z M1069.19,1336.26H962.49v-106.68h106.69V1336.26z M1069.19,1227.3
			H962.49v-106.69h106.69V1227.3z M1069.19,1118.34H962.49v-106.69h106.69V1118.34z M1069.19,1009.38H962.49V902.69h106.69V1009.38z
			 M1069.19,900.42H962.49V793.73h106.69V900.42z M1069.19,791.46H962.49V684.77h106.69V791.46z M1178.15,1336.26h-106.69v-106.68
			h106.69V1336.26z M1178.15,1227.3h-106.69v-106.69h106.69V1227.3z M1178.15,1118.34h-106.69v-106.69h106.69V1118.34z
			 M1178.15,1009.38h-106.69V902.69h106.69V1009.38z M1178.15,900.42h-106.69V793.73h106.69V900.42z M1178.15,791.46h-106.69V684.77
			h106.69V791.46z M1287.1,1336.26h-106.69v-106.68h106.69V1336.26z M1287.1,1227.3h-106.69v-106.69h106.69V1227.3z M1287.1,1118.34
			h-106.69v-106.69h106.69V1118.34z M1287.1,1009.38h-106.69V902.69h106.69V1009.38z M1287.1,900.42h-106.69V793.73h106.69V900.42z
			 M1287.1,791.46h-106.69V684.77h106.69V791.46z M1722.95,684.77v106.69h-106.68V684.77H1722.95z M1722.95,900.42h-106.68V793.73
			h106.68V900.42z M1613.98,1227.3H1507.3v-106.69h106.68V1227.3z M1398.33,793.73h106.69v106.69h-106.69V793.73z M1507.3,793.73
			h106.68v106.69H1507.3V793.73z M1398.33,1011.65h106.69v106.69h-106.69V1011.65z M1398.33,1120.61h106.69v106.69h-106.69V1120.61z
			 M1505.02,1009.38h-106.69V902.69h106.69V1009.38z M1507.3,902.69h106.68v106.69H1507.3V902.69z M1616.26,1011.65h106.68v106.69
			h-106.68V1011.65z M1613.98,1011.65v106.69H1507.3v-106.69H1613.98z M1616.26,1120.61l106.68,0.01v106.68h-106.68V1120.61z
			 M1722.95,1009.38h-106.68V902.69h106.68V1009.38z M1613.98,684.77v106.69H1507.3V684.77H1613.98z M1398.33,684.77h106.69v106.69
			h-106.69V684.77z M1289.38,684.77h106.69v106.69h-106.69V684.77z M1396.06,1336.26h-106.69v-106.68h106.69V1336.26z
			 M1396.06,1227.3h-106.69v-106.69h106.69V1227.3z M1396.06,1118.34h-106.69v-106.69h106.69V1118.34z M1396.06,1009.38h-106.69
			V902.69h106.69V1009.38z M1396.06,900.42h-106.69V793.73h106.69V900.42z M1505.02,1336.26h-106.69v-106.68h106.69V1336.26z
			 M1613.98,1336.26H1507.3v-106.68h106.68V1336.26z M1616.26,1336.26v-106.68h106.68v106.68H1616.26z M1725.22,1336.26v-106.68
			h106.68v106.68H1725.22z M1831.91,1227.3h-106.68v-106.68h106.68V1227.3z M1831.91,1118.34h-106.68v-106.69h106.68V1118.34z
			 M1831.91,1009.38h-106.68V902.69h106.68V1009.38z M1831.91,900.42h-106.68V793.73h106.68V900.42z M1831.91,791.46h-106.68V684.77
			h106.68V791.46z M633.34,1024.41v49.37l2.27,2.27v-51.64H633.34z M415.76,1177.14l0.56,0.57l1.37,1.37v-3.87L415.76,1177.14z
			 M415.41,1140.11v44.24h0.04l0.31-0.31l1.93-1.94v-3.02l-1.37-1.37l-0.56-0.57l1.93-1.93v-35.1H415.41z M409.98,1009.38h-73
			c0.11,0.07,0.21,0.15,0.32,0.24c0.06,0.05,0.11,0.09,0.16,0.13c0.47,0.39,0.91,0.83,1.3,1.32c0.11,0.13,0.22,0.28,0.31,0.42
			c0.04,0.05,0.08,0.1,0.11,0.16h73.07L409.98,1009.38z M633.34,1155.29v42.78h0.8c0.58,0,1.1,0.25,1.47,0.65v-45.69L633.34,1155.29
			z M306.45,810.9v82.41h2.28V810.9H306.45z M302.48,901.88h-55.2l-0.81,0.81h56.82L302.48,901.88z M306.45,1317.02v15.47h2.28
			v-13.19L306.45,1317.02z M415.41,1260.32v45h2.28v-45H415.41z M524.38,1256.85v15.27h2.28v-15.27H524.38z M1722.95,904.86v90.05
			c0.33-0.33,0.79-0.54,1.3-0.54h0.98v-89.51H1722.95z M1725.22,791.46v-50.55l-2.28-2.28v52.83h-106.68v-91.34
			c-0.02-0.01-0.04-0.01-0.06-0.02c-0.13-0.03-0.27-0.06-0.4-0.1c-0.64-0.18-1.25-0.44-1.82-0.77v92.23h-46.02l2.27,2.27h43.75
			v43.74l2.28,2.28v-46.02h106.68v7.13l2.28-2.28v-4.85h4.85l2.27-2.27H1725.22z M1722.95,800.86v41.07h2.28v-43.35L1722.95,800.86z
			 M1809.36,791.46h-77.02l-2.27,2.27h81.56L1809.36,791.46z M1833.22,815.32l-1.32-1.32v18.54h2.28v-17.22H1833.22z
			 M1722.95,704.01v34.62l2.28,2.28v-39.18L1722.95,704.01z M677.9,1118.34h-42.29v-42.29l-2.27-2.27v44.56H526.65v-49.2h-2.28v49.2
			h-70.98l-2.27,2.27h73.25v32.33l2.28,2.28v-34.61h106.69v77.46h0.8c0.58,0,1.1,0.25,1.47,0.65v-78.11h44.56L677.9,1118.34z
			 M415.41,1156.33v20.46l0.35,0.35l-0.35,0.35v2.86h2.28v-26.3L415.41,1156.33z M415.41,1176.79v0.7l0.35-0.35L415.41,1176.79z
			 M415.41,1140.11v16.22l2.28-2.28v-13.94H415.41z M418.28,1118.34l-2.87,2.87v18.9h2.28v-19.5h33.43l2.27-2.27H418.28z
			 M306.45,810.9v82.41h2.28V810.9H306.45z M306.45,1027.74v47l2.28,2.28v-47L306.45,1027.74z M306.45,1129.75v69.14h2.28v-69.14
			H306.45z M306.45,1317.02v15.47h2.28v-13.19L306.45,1317.02z M415.41,1260.32v45h2.28v-45H415.41z M524.38,1256.85v15.27h2.28
			v-15.27H524.38z M1725.22,791.46v-50.55l-2.28-2.28v52.83h-106.68v-91.34c-0.02-0.01-0.04-0.01-0.06-0.02
			c-0.13-0.03-0.27-0.06-0.4-0.1c-0.64-0.18-1.25-0.44-1.82-0.77v92.23h-46.02l2.27,2.27h43.75v43.74l2.28,2.28v-46.02h106.68v19
			l2.28-2.28v-16.72h16.72l2.27-2.27H1725.22z M1722.95,904.86v90.05c0.33-0.33,0.79-0.54,1.3-0.54h0.98v-89.51H1722.95z
			 M1809.36,791.46h-65.15l-2.27,2.27h69.69L1809.36,791.46z M1833.22,815.32l-1.32-1.32v18.54h2.28v-17.22H1833.22z
			 M1831.91,845.99v23.09c0.08-0.09,0.15-0.17,0.24-0.26c0.07-0.07,0.14-0.14,0.22-0.21c0.21-0.2,0.43-0.38,0.67-0.55
			c0.06-0.05,0.13-0.1,0.2-0.14c0.3-0.21,0.62-0.38,0.95-0.53v-19.12L1831.91,845.99z M1722.95,704.01v34.62l2.28,2.28v-39.18
			L1722.95,704.01z M677.9,1118.34h-42.29v-42.29l-2.27-2.27v44.56H526.65v-49.2h-2.28v49.2h-70.98l-2.27,2.27h73.25v32.33
			l2.28,2.28v-34.61h106.69v77.46h0.8c0.58,0,1.1,0.25,1.47,0.65v-78.11h44.56L677.9,1118.34z M415.41,1156.33v20.46l0.35,0.35
			l-0.35,0.35v2.86h2.28v-26.3L415.41,1156.33z M415.41,1176.79v0.7l0.35-0.35L415.41,1176.79z M415.41,1140.11v16.22l2.28-2.28
			v-13.94H415.41z M418.28,1118.34l-2.87,2.87v18.9h2.28v-19.5h33.43l2.27-2.27H418.28z M306.45,810.9v82.41h2.28V810.9H306.45z
			 M306.45,1027.74v47l2.28,2.28v-47L306.45,1027.74z M306.45,1129.75v69.14h2.28v-69.14H306.45z M306.45,1317.02v15.47h2.28v-13.19
			L306.45,1317.02z M415.41,1260.32v45h2.28v-45H415.41z M524.38,1256.85v15.27h2.28v-15.27H524.38z M1725.22,791.46v-50.55
			l-2.28-2.28v52.83h-106.68v-91.34c-0.02-0.01-0.04-0.01-0.06-0.02c-0.13-0.03-0.27-0.06-0.4-0.1c-0.64-0.18-1.25-0.44-1.82-0.77
			v92.23h-46.02l2.27,2.27h43.75v43.74l2.28,2.28v-46.02h106.68v19l2.28-2.28v-16.72h16.72l2.27-2.27H1725.22z M1722.95,904.86
			v90.05c0.33-0.33,0.79-0.54,1.3-0.54h0.98v-89.51H1722.95z M1809.36,791.46h-65.15l-2.27,2.27h69.69L1809.36,791.46z
			 M1833.22,815.32l-1.32-1.32v18.54h2.28v-17.22H1833.22z M1831.91,845.99v23.09c0.08-0.09,0.15-0.17,0.24-0.26
			c0.07-0.07,0.14-0.14,0.22-0.21c0.21-0.2,0.43-0.38,0.67-0.55c0.06-0.05,0.13-0.1,0.2-0.14c0.3-0.21,0.62-0.38,0.95-0.53v-19.12
			L1831.91,845.99z M1722.95,704.01v34.62l2.28,2.28v-39.18L1722.95,704.01z M677.9,1118.34h-42.29v-42.29l-2.27-2.27v44.56H526.65
			v-49.2h-2.28v49.2h-70.98l-2.27,2.27h73.25v32.33l2.28,2.28v-34.61h106.69v77.46h0.8c0.58,0,1.1,0.25,1.47,0.65v-78.11h44.56
			L677.9,1118.34z M415.41,1156.33v20.46l0.35,0.35l-0.35,0.35v2.86h2.28v-26.3L415.41,1156.33z M415.41,1176.79v0.7l0.35-0.35
			L415.41,1176.79z M415.41,1140.11v16.22l2.28-2.28v-13.94H415.41z M418.28,1118.34l-2.87,2.87v18.9h2.28v-19.5h33.43l2.27-2.27
			H418.28z M306.45,810.9v82.41h2.28V810.9H306.45z M306.45,1027.74v47l2.28,2.28v-47L306.45,1027.74z M306.45,1129.75v69.14h2.28
			v-69.14H306.45z M306.45,1317.02v15.47h2.28v-13.19L306.45,1317.02z M415.41,1260.32v45h2.28v-45H415.41z M524.38,1256.85v15.27
			h2.28v-15.27H524.38z M1725.22,791.46v-50.55l-2.28-2.28v52.83h-106.68v-91.34c-0.02-0.01-0.04-0.01-0.06-0.02
			c-0.13-0.03-0.27-0.06-0.4-0.1c-0.64-0.18-1.25-0.44-1.82-0.77v92.23h-46.02l2.27,2.27h43.75v43.74l2.28,2.28v-46.02h106.68v19
			l2.28-2.28v-16.72h16.72l2.27-2.27H1725.22z M1722.95,904.86v90.05c0.33-0.33,0.79-0.54,1.3-0.54h0.98v-89.51H1722.95z
			 M1809.36,791.46h-65.15l-2.27,2.27h69.69L1809.36,791.46z M1833.22,815.32l-1.32-1.32v18.54h2.28v-17.22H1833.22z
			 M1831.91,845.99v23.09c0.08-0.09,0.15-0.17,0.24-0.26c0.07-0.07,0.14-0.14,0.22-0.21c0.21-0.2,0.43-0.38,0.67-0.55
			c0.06-0.05,0.13-0.1,0.2-0.14c0.3-0.21,0.62-0.38,0.95-0.53v-19.12L1831.91,845.99z M677.9,1118.34h-42.29v-42.29l-2.27-2.27
			v44.56H526.65v-49.2h-2.28v49.2h-70.98l-2.27,2.27h73.25v32.33l2.28,2.28v-34.61h106.69v77.46h0.8c0.58,0,1.1,0.25,1.47,0.65
			v-78.11h44.56L677.9,1118.34z M415.41,1156.33v20.46l0.35,0.35l-0.35,0.35v2.86h2.28v-26.3L415.41,1156.33z M415.41,1176.79v0.7
			l0.35-0.35L415.41,1176.79z M415.41,1140.11v16.22l2.28-2.28v-13.94H415.41z M418.28,1118.34l-2.87,2.87v18.9h2.28v-19.5h33.43
			l2.27-2.27H418.28z M306.45,810.9v82.41h2.28V810.9H306.45z M306.45,1027.74v47l2.28,2.28v-47L306.45,1027.74z M306.45,1129.75
			v69.14h2.28v-69.14H306.45z M306.45,1317.02v15.47h2.28v-13.19L306.45,1317.02z M415.41,1260.32v45h2.28v-45H415.41z
			 M524.38,1256.85v15.27h2.28v-15.27H524.38z M1725.22,791.46v-50.55l-2.28-2.28v52.83h-106.68v-91.34
			c-0.02-0.01-0.04-0.01-0.06-0.02c-0.13-0.03-0.27-0.06-0.4-0.1c-0.64-0.18-1.25-0.44-1.82-0.77v92.23h-46.02l2.27,2.27h43.75
			v43.74l2.28,2.28v-46.02h106.68v19l2.28-2.28v-16.72h21.03l2.27-2.27H1725.22z M1722.95,904.86v90.05
			c0.33-0.33,0.79-0.54,1.3-0.54h0.98v-89.51H1722.95z M1809.36,791.46h-60.84l-2.27,2.27h65.38L1809.36,791.46z M1833.22,815.32
			l-1.32-1.32v18.54h2.28v-17.22H1833.22z M1833.11,841.93h-1.21v27.15c0.08-0.09,0.15-0.17,0.24-0.26
			c0.07-0.07,0.14-0.14,0.22-0.21c0.21-0.2,0.43-0.38,0.67-0.55c0.06-0.05,0.13-0.1,0.2-0.14c0.3-0.21,0.62-0.38,0.95-0.53V843
			L1833.11,841.93z M677.9,1118.34h-42.29v-42.29l-2.27-2.27v44.56H526.65v-49.2h-2.28v49.2h-70.98l-2.27,2.27h73.25v32.33
			l2.28,2.28v-34.61h106.69v77.46h0.8c0.58,0,1.1,0.25,1.47,0.65v-78.11h44.56L677.9,1118.34z M415.41,1156.33v20.46l0.35,0.35
			l-0.35,0.35v2.86h2.28v-26.3L415.41,1156.33z M415.41,1176.79v0.7l0.35-0.35L415.41,1176.79z M415.41,1140.11v16.22l2.28-2.28
			v-13.94H415.41z M418.28,1118.34l-2.87,2.87v18.9h2.28v-19.5h33.43l2.27-2.27H418.28z M306.45,810.9v82.41h2.28V810.9H306.45z
			 M306.45,1027.74v47l2.28,2.28v-47L306.45,1027.74z M306.45,1129.75v69.14h2.28v-69.14H306.45z M306.45,1317.02v15.47h2.28v-13.19
			L306.45,1317.02z M415.41,1260.32v45h2.28v-45H415.41z M524.38,1256.85v15.27h2.28v-15.27H524.38z M1725.22,791.46v-50.55
			l-2.28-2.28v52.83h-106.68v-91.34c-0.02-0.01-0.04-0.01-0.06-0.02c-0.13-0.03-0.27-0.06-0.4-0.1c-0.64-0.18-1.25-0.44-1.82-0.77
			v92.23h-46.02l2.27,2.27h43.75v43.74l2.28,2.28v-46.02h106.68v19l2.28-2.28v-16.72h21.03l2.27-2.27H1725.22z M1722.95,904.86
			v90.05c0.33-0.33,0.79-0.54,1.3-0.54h0.98v-89.51H1722.95z M1809.36,791.46h-60.84l-2.27,2.27h65.38L1809.36,791.46z
			 M1833.22,815.32l-1.32-1.32v18.54h2.28v-17.22H1833.22z M1833.11,841.93h-1.21v27.15c0.08-0.09,0.15-0.17,0.24-0.26
			c0.07-0.07,0.14-0.14,0.22-0.21c0.21-0.2,0.43-0.38,0.67-0.55c0.06-0.05,0.13-0.1,0.2-0.14c0.3-0.21,0.62-0.38,0.95-0.53V843
			L1833.11,841.93z M677.9,1118.34h-42.29v-42.29l-2.27-2.27v44.56H526.65v-49.2h-2.28v49.2h-70.98l-2.27,2.27h73.25v32.33
			l2.28,2.28v-34.61h106.69v77.46h0.8c0.58,0,1.1,0.25,1.47,0.65v-78.11h44.56L677.9,1118.34z M415.41,1156.33v20.46l0.35,0.35
			l-0.35,0.35v2.86h2.28v-26.3L415.41,1156.33z M415.41,1176.79v0.7l0.35-0.35L415.41,1176.79z M415.41,1140.11v16.22l2.28-2.28
			v-13.94H415.41z M418.28,1118.34l-2.87,2.87v18.9h2.28v-19.5h33.43l2.27-2.27H418.28z M306.45,810.9v82.41h2.28V810.9H306.45z
			 M306.45,1027.74v47l2.28,2.28v-47L306.45,1027.74z M306.45,1129.75v69.14h2.28v-69.14H306.45z M306.45,1317.02v15.47h2.28v-13.19
			L306.45,1317.02z M415.41,1260.32v45h2.28v-45H415.41z M524.38,1256.85v15.27h2.28v-15.27H524.38z M1725.22,791.46v-50.55
			l-2.28-2.28v52.83h-106.68v-91.34c-0.02-0.01-0.04-0.01-0.06-0.02c-0.13-0.03-0.27-0.06-0.4-0.1c-0.64-0.18-1.25-0.44-1.82-0.77
			v92.23h-46.02l2.27,2.27h43.75v43.74l2.28,2.28v-46.02h106.68v19l2.28-2.28v-16.72h21.03l2.27-2.27H1725.22z M1722.95,904.86
			v90.05c0.33-0.33,0.79-0.54,1.3-0.54h0.98v-89.51H1722.95z M1809.36,791.46h-60.84l-2.27,2.27h65.38L1809.36,791.46z
			 M1833.22,815.32l-1.32-1.32v18.54h2.28v-17.22H1833.22z M1833.11,841.93h-1.21v27.15c0.08-0.09,0.15-0.17,0.24-0.26
			c0.07-0.07,0.14-0.14,0.22-0.21c0.21-0.2,0.43-0.38,0.67-0.55c0.06-0.05,0.13-0.1,0.2-0.14c0.3-0.21,0.62-0.38,0.95-0.53V843
			L1833.11,841.93z M677.9,1118.34h-42.29v-42.29l-2.27-2.27v44.56H526.65v-49.2h-2.28v49.2h-70.98l-2.27,2.27h73.25v32.33
			l2.28,2.28v-34.61h106.69v77.46h0.8c0.58,0,1.1,0.25,1.47,0.65v-78.11h44.56L677.9,1118.34z M415.41,1156.33v20.46l0.35,0.35
			l-0.35,0.35v2.86h2.28v-26.3L415.41,1156.33z M415.41,1176.79v0.7l0.35-0.35L415.41,1176.79z M415.41,1140.11v16.22l2.28-2.28
			v-13.94H415.41z M418.28,1118.34l-2.87,2.87v18.9h2.28v-19.5h33.43l2.27-2.27H418.28z M306.45,810.9v82.41h2.28V810.9H306.45z
			 M306.45,1027.74v47l2.28,2.28v-47L306.45,1027.74z M306.45,1129.75v69.14h2.28v-69.14H306.45z M306.45,1317.02v15.47h2.28v-13.19
			L306.45,1317.02z M415.41,1260.32v45h2.28v-45H415.41z M524.38,1256.85v15.27h2.28v-15.27H524.38z M1725.22,791.46v-50.55
			l-2.28-2.28v52.83h-106.68v-91.34c-0.02-0.01-0.04-0.01-0.06-0.02c-0.13-0.03-0.27-0.06-0.4-0.1c-0.64-0.18-1.25-0.44-1.82-0.77
			v92.23h-46.02l2.27,2.27h43.75v43.74l2.28,2.28v-46.02h106.68v19l2.28-2.28v-16.72h21.03l2.27-2.27H1725.22z M1722.95,904.86
			v90.05c0.33-0.33,0.79-0.54,1.3-0.54h0.98v-89.51H1722.95z M1809.36,791.46h-60.84l-2.27,2.27h65.38L1809.36,791.46z
			 M1833.22,815.32l-1.32-1.32v18.54h2.28v-17.22H1833.22z M1833.11,841.93h-1.21v27.15c0.08-0.09,0.15-0.17,0.24-0.26
			c0.07-0.07,0.14-0.14,0.22-0.21c0.21-0.2,0.43-0.38,0.67-0.55c0.06-0.05,0.13-0.1,0.2-0.14c0.3-0.21,0.62-0.38,0.95-0.53V843
			L1833.11,841.93z M677.9,1118.34h-42.29v-42.29l-2.27-2.27v44.56H526.65v-49.2h-2.28v49.2h-70.98l-2.27,2.27h73.25v32.33
			l2.28,2.28v-34.61h106.69v77.46h0.8c0.58,0,1.1,0.25,1.47,0.65v-78.11h44.56L677.9,1118.34z M415.41,1156.33v20.46l0.35,0.35
			l-0.35,0.35v2.86h2.28v-26.3L415.41,1156.33z M415.41,1176.79v0.7l0.35-0.35L415.41,1176.79z M415.41,1140.11v16.22l2.28-2.28
			v-13.94H415.41z M418.28,1118.34l-2.87,2.87v18.9h2.28v-19.5h33.43l2.27-2.27H418.28z M306.45,810.9v82.41h2.28V810.9H306.45z
			 M306.45,1129.75v70.57l2.28,2.28v-72.85H306.45z M415.41,1176.79v0.7l0.35-0.35L415.41,1176.79z M415.41,1140.11v16.22l2.28-2.28
			v-13.94H415.41z M415.41,1260.32v45h2.28v-45H415.41z M524.38,1256.85v15.27h2.28v-15.27H524.38z M1725.22,791.46v-50.55
			l-2.28-2.28v52.83h-106.68v-91.34c-0.02-0.01-0.04-0.01-0.06-0.02c-0.13-0.03-0.27-0.06-0.4-0.1c-0.64-0.18-1.25-0.44-1.82-0.77
			v92.23h-46.02l2.27,2.27h43.75v43.74l2.28,2.28v-46.02h106.68v19l2.28-2.28v-16.72h21.03l2.27-2.27H1725.22z M1722.95,904.86
			v90.05c0.33-0.33,0.79-0.54,1.3-0.54h0.98v-89.51H1722.95z M1809.36,791.46h-60.84l-2.27,2.27h65.38L1809.36,791.46z
			 M1833.22,815.32l-1.32-1.32v18.54h2.28v-17.22H1833.22z M1833.11,841.93h-1.21v27.15c0.08-0.09,0.15-0.17,0.24-0.26
			c0.07-0.07,0.14-0.14,0.22-0.21c0.21-0.2,0.43-0.38,0.67-0.55c0.06-0.05,0.13-0.1,0.2-0.14c0.3-0.21,0.62-0.38,0.95-0.53V843
			L1833.11,841.93z"/>
		<g>
			<g>
				<g>
					<path class="st2" d="M692.58,1021.97c0,1.35-1.09,2.44-2.43,2.44H425.01l-60.08-60.09l-2.27-2.27l-0.36-0.35v-0.01
						l-45.38-45.38l-4.82-4.81l-9.62-9.62H120.87V897H304.5l65.05,65.05l2.27,2.27l55.21,55.21h263.12
						C691.49,1019.53,692.58,1020.63,692.58,1021.97z"/>
					<g>
						<path class="st2" d="M689.6,1010.97c6.07,0,11,4.93,11,11c0,6.07-4.93,11-11,11c-6.07,0-11-4.93-11-11
							C678.6,1015.9,683.52,1010.97,689.6,1010.97z"/>
					</g>
				</g>
				<g>
					<path class="st2" d="M908.04,1086.76c0,1.35-1.09,2.44-2.44,2.44H706.33l-25.34,25.34l-3.45,3.45l-0.35,0.35l-2.27,2.27
						l-41.58,41.58l-35.29,35.29l-0.6,0.59l-0.12,0.12H429.91l-12.22-12.21l-1.63-1.63l-0.3-0.31l-0.35-0.35l-2.54-2.53l-0.57-0.57
						l-0.23-0.24l-2.02-2.01l-8.33-8.33l-35.38-35.39l-4.88-4.87l-65.12-65.12H171.03l-43.15,43.15l-3.2,3.19l-0.26,0.25l-3.55,3.55
						v-6.88l3.56-3.56l44.58-44.58h129.36l6.72,6.72l1.36,1.36l2.28,2.28l0.34,0.34l18.54,18.54l3.99,3.99l25.36,25.36l2.27,2.27
						l48.76,48.76l5.52,5.52l2.25,2.25l0.56,0.57l1.37,1.37l1.27,1.27l4,4l8.97,8.97h163.38l38.03-38.03l2.27-2.26l32.42-32.42
						l2.27-2.27l3.8-3.8l3.44-3.45l26.77-26.77H905.6C906.95,1084.32,908.04,1085.41,908.04,1086.76z"/>
					<g>
						<path class="st2" d="M905.06,1075.76c6.07,0,11,4.93,11,11c0,6.07-4.93,11-11,11c-6.07,0-11-4.93-11-11
							C894.06,1080.68,898.98,1075.76,905.06,1075.76z"/>
					</g>
				</g>
				<g>
					<path class="st2" d="M804.23,1033.61c0,1.34-1.09,2.43-2.44,2.43H732.3l-26.66-26.66l-28.67-28.66H463.3l-45.61-45.62
						l-36.91-36.91H167.91l-45.33,45.33l-1.71,1.71v-6.58h-0.32l0.32-0.32l35.64-35.64l9.38-9.38h216.9l34.9,34.9l47.63,47.63
						h213.68l33.53,33.54l21.79,21.79h67.47C803.14,1031.17,804.23,1032.26,804.23,1033.61z"/>
					<g>
						<path class="st2" d="M801.25,1022.6c6.07,0,11,4.93,11,11c0,6.07-4.93,11-11,11c-6.07,0-11-4.93-11-11
							C790.25,1027.53,795.17,1022.6,801.25,1022.6z"/>
					</g>
				</g>
				<g>
					<path class="st2" d="M401.32,808.46c0,1.35-1.08,2.44-2.43,2.44H189.92l-56.39,56.4h-12.66v-4.87h10.63l56.41-56.41h210.98
						C400.24,806.02,401.32,807.12,401.32,808.46z"/>
					<g>
						<path class="st2" d="M398.34,797.46c6.07,0,11,4.93,11,11c0,6.07-4.93,11-11,11c-6.07,0-11-4.93-11-11
							C387.34,802.39,392.27,797.46,398.34,797.46z"/>
					</g>
				</g>
				<g>
					<path class="st2" d="M596.63,1107.23c0,1.35-1.1,2.44-2.44,2.44H490.12l-10.94,10.94l-15.51,15.52l-44.22,44.22l-0.25,0.24
						l-1.51,1.51l-1.93,1.94l-0.35,0.35l-42.9,42.91l-2.28,2.28l-1.42,1.42l-3.46,3.44l-4.05,4.06l-9.87,9.87h-176.6l-2.52,2.52
						l-2.81,2.82l-5.52,5.51l-2.81,2.82l-9.09,9.08l-4.88,4.88l-26.33,26.33v-6.9l45.17-45.17l2.82-2.81l3.24-3.25l0.71-0.7h176.6
						l0.12-0.11l12.38-12.39l2.99-2.99l0.45-0.47l0.24-0.24l42.97-42.95l3.74-3.76l0.25-0.24l2.86-2.86l0.35-0.35l1.93-1.93
						l35.1-35.1l19.5-19.5l2.26-2.27l13.55-13.55h106.08C595.52,1104.79,596.63,1105.89,596.63,1107.23z"/>
					<g>
						<path class="st2" d="M593.63,1096.23c6.07,0,11,4.93,11,11c0,6.07-4.93,11-11,11c-6.07,0-11-4.93-11-11
							C582.63,1101.16,587.56,1096.23,593.63,1096.23z"/>
					</g>
				</g>
				<g>
					<path class="st2" d="M481.74,856.31c0,1.34-1.1,2.43-2.44,2.43H290.41l-34.56,34.57l-9.38,9.38l-40.13,40.12l-0.71,0.71h-84.76
						v-4.87h82.74l35.96-35.96l4.5-4.5l4.87-4.88l39.45-39.44H479.3C480.64,853.87,481.74,854.96,481.74,856.31z"/>
					<g>
						<path class="st2" d="M478.75,845.3c6.07,0,11,4.93,11,11c0,6.07-4.93,11-11,11c-6.07,0-11-4.93-11-11
							C467.75,850.23,472.68,845.3,478.75,845.3z"/>
					</g>
				</g>
				<g>
					<path class="st2" d="M776.24,1290.34c0,1.35-1.09,2.44-2.44,2.44h-80.57l-57.62,57.62l-2.27,2.27l-61.88,61.88H294.4
						l-50.8-50.78H120.87v-4.88h124.76l50.79,50.79h273.01l63.91-63.92l2.27-2.27l4.95-4.95l2.28-2.28l48.36-48.36h82.6
						C775.15,1287.9,776.24,1289,776.24,1290.34z"/>
					<g>
						<path class="st2" d="M773.26,1279.35c6.07,0,11,4.93,11,11c0,6.07-4.93,11-11,11c-6.07,0-11-4.93-11-11
							C762.26,1284.27,767.18,1279.35,773.26,1279.35z"/>
					</g>
				</g>
				<g>
					<path class="st2" d="M574.72,1274.56c0,1.35-1.09,2.44-2.44,2.44h-68.75l-47.56,47.56H307.1l-0.65-0.65l-30.96-30.95
						l-3.98-3.98L258.53,1276H120.87v-4.88h139.67l17.86,17.86l3.98,3.98l24.07,24.06l2.28,2.28l0.38,0.38h144.84l14.93-14.92
						l6.95-6.96l1.69-1.68l24-24h70.76C573.64,1272.12,574.72,1273.21,574.72,1274.56z"/>
					<g>
						<path class="st2" d="M571.74,1263.56c6.07,0,11,4.93,11,11c0,6.07-4.93,11-11,11c-6.07,0-11-4.93-11-11
							C560.74,1268.49,565.67,1263.56,571.74,1263.56z"/>
					</g>
				</g>
				<g>
					<path class="st2" d="M621.14,1254.41c0,1.35-1.09,2.44-2.44,2.44H387.76l-7.25-7.25l-8.33-8.33l-13.97-13.97l-3.29-3.28
						l-25.13-25.13H120.87v-4.88h210.95l30.01,30.01l3.28,3.28l0.24,0.24l2.04,2.04l1.42,1.42l6.82,6.82l14.15,14.15h228.91
						c1.32,0,2.38,1.04,2.43,2.34C621.14,1254.35,621.14,1254.38,621.14,1254.41z"/>
					<g>
						<path class="st2" d="M618.15,1243.41c6.07,0,11,4.93,11,11s-4.93,11-11,11c-6.07,0-11-4.93-11-11
							S612.07,1243.41,618.15,1243.41z"/>
					</g>
				</g>
			</g>
			<g>
				<g>
					<path class="st3" d="M610.79,1067.15c0,1.1-0.89,1.99-1.99,1.99H508.22l-49.19,49.2l-2.27,2.27l-15.52,15.52l-3.98,3.98
						l-19.57,19.56l-9.7,9.7l-3.45,3.46l-7.52,7.52l-3.99,4l-35.44,35.43l-3.45,3.45v0.01l-4.07,4.06l-0.12,0.12l-0.58,0.59H203.71
						l-0.71-0.71l-3.23-3.23l-25.18-25.18l-4.87-4.88l-7.61-7.61h-41.24v-3.99h42.89l11.59,11.6l15.25,15.25l2.82,2.81l4.07,4.07
						l2.28,2.29l5.59,5.59h142.36l3.6-3.6v-0.01l3.45-3.45l32.62-32.61l3.99-4l10.34-10.34l3.46-3.45l12.51-12.51l13.93-13.94
						l74.95-74.95H608.8C609.9,1065.16,610.79,1066.05,610.79,1067.15z"/>
					<g>
						<path class="st3" d="M608.35,1058.15c4.97,0,8.99,4.03,8.99,8.99s-4.03,8.99-8.99,8.99c-4.97,0-8.99-4.03-8.99-8.99
							S603.39,1058.15,608.35,1058.15z"/>
					</g>
				</g>
				<g>
					<path class="st3" d="M693.11,1252.32c0,1.11-0.88,1.99-1.99,1.99H542.03l-17.66-17.66l-7.08-7.07l-13.64-13.64l-17.74-17.75
						l-4.88-4.87l-8.97-8.97H311.68l-5.23-5.23l-19.29-19.3h-114.8l-26.58,26.58l-7.6,7.61l-17.31,17.31v-5.64l6.79-6.79l4.87-4.88
						l7.61-7.61l3.99-3.99l26.58-26.58h118.11l17.63,17.64l2.28,2.28l4.6,4.6h160.39l12.96,12.97l37.69,37.69l2.28,2.28l17.04,17.04
						h147.43C692.23,1250.33,693.11,1251.23,693.11,1252.32z"/>
					<g>
						<path class="st3" d="M690.68,1243.33c4.97,0,8.99,4.03,8.99,8.99c0,4.97-4.03,8.99-8.99,8.99c-4.97,0-8.99-4.03-8.99-8.99
							C681.68,1247.36,685.71,1243.33,690.68,1243.33z"/>
					</g>
				</g>
				<g>
					<path class="st3" d="M636.14,1200.07c0,0.52-0.2,1-0.52,1.35c-0.37,0.39-0.89,0.64-1.47,0.64H523.16l-13.86,13.88l-2.83,2.82
						l-33.21,33.21l-4.88,4.88l-7.47,7.46h-96.1l-7.84-7.83l-2.82-2.82l-5.28-5.29l-4.88-4.87l-13.92-13.92l-1.57-1.57l-0.71-0.71
						l-3.29-3.28l-15.77-15.77l-2.28-2.28l-7.08-7.08l-4.88-4.88l-5.97-5.97h-71.06l-5.98,5.97l-4.87,4.88l-6.84,6.83l-6.35,6.35
						l-2.82,2.83l-12.41,12.4l-8.95,8.95h-48.37v-3.99h46.72l4.96-4.96l15.23-15.22l13.19-13.19l4.87-4.88l9.38-9.38l0.59-0.59
						h74.37l9.97,9.97l4.87,4.88l25.13,25.13l3.28,3.28l0.71,0.71l1.57,1.57l13.81,13.8l3.45,3.45l4,4.01h0.01l2.81,2.82h0.01
						l6.66,6.66h92.8l3.47-3.47l4.88-4.88l22.4-22.39l13.64-13.64l2.83-2.82l14.45-14.46l0.46-0.47l0.12-0.12h112.63
						c0.58,0,1.1,0.25,1.47,0.65C635.93,1199.07,636.14,1199.55,636.14,1200.07z"/>
					<g>
						<path class="st3" d="M633.69,1191.07c4.97,0,8.99,4.03,8.99,8.99c0,4.97-4.03,8.99-8.99,8.99c-4.97,0-8.99-4.03-8.99-8.99
							C624.7,1195.1,628.73,1191.07,633.69,1191.07z"/>
					</g>
				</g>
				<g>
					<path class="st3" d="M576.85,1169.71c0,1.1-0.89,2-2,2h-37.35l-31.6-31.6H383.87l-5.49-5.49l-4.87-4.87l-9.14-9.14l-2.27-2.27
						l-25.36-25.36H215.68l-15.91,15.9l-2.28,2.28l-3.72,3.72l-3.46,3.46l-0.53,0.53l-1.74,1.74l-9.13,9.14l-0.98,0.97h-55.79
						l-1.27-1.27v-5.63l2.92,2.92h52.49l7.87-7.87l0.53-0.53l3.46-3.46l9.35-9.35l2.28-2.28l14.26-14.26h124.36l29.34,29.35
						l2.27,2.27l9.14,9.14l4.88,4.87l1.5,1.51h122.03l16.82,16.81l2.28,2.28l12.5,12.5h35.7
						C575.96,1167.72,576.85,1168.61,576.85,1169.71z"/>
					<g>
						<path class="st3" d="M574.41,1160.72c4.97,0,8.99,4.03,8.99,8.99s-4.03,8.99-8.99,8.99c-4.97,0-8.99-4.03-8.99-8.99
							S569.44,1160.72,574.41,1160.72z"/>
					</g>
				</g>
				<g>
					<path class="st3" d="M334.18,1016.68c0,1.1-0.89,2-2,2h-116.5l-15.91,15.91l-2.28,2.27l-14.02,14.02h-62.6v-3.98h60.95
						l15.67-15.67l2.28-2.28l14.26-14.26h118.15C333.29,1014.69,334.18,1015.58,334.18,1016.68z"/>
					<g>
						<path class="st3" d="M331.74,1007.69c4.97,0,8.99,4.03,8.99,8.99s-4.03,8.99-8.99,8.99c-4.97,0-8.99-4.03-8.99-8.99
							S326.78,1007.69,331.74,1007.69z"/>
					</g>
				</g>
				<g>
					<path class="st3" d="M458.28,1211.76c0,1.1-0.89,2-1.99,2h-56.6l-13.54,13.54l-2.28,2.28l-11.69,11.69l-12.38,12.39h-0.01
						l-2.82,2.82l-25.96,25.96l-2.82,2.81v0.01l-7.71,7.7H219.63l-11.79,11.79l-4,3.99l-4.07,4.07l-2.28,2.28l-21.16,21.17
						l-2.28,2.28l-20.34,20.35l-4.88,4.88l-8.83,8.83h-19.13v-3.99h17.48l4.84-4.84l4.88-4.88l20.35-20.35l2.28-2.28l26.79-26.79
						l0.73-0.73l3.99-3.99l15.77-15.77h100.85l38.14-38.14h0.01l12.38-12.39l8.87-8.87l2.28-2.28l17.53-17.53h58.25
						C457.39,1209.77,458.28,1210.66,458.28,1211.76z"/>
					<g>
						<path class="st3" d="M455.84,1202.77c4.97,0,8.99,4.03,8.99,8.99c0,4.97-4.03,8.99-8.99,8.99c-4.97,0-8.99-4.03-8.99-8.99
							C446.85,1206.79,450.88,1202.77,455.84,1202.77z"/>
					</g>
				</g>
				<g>
					<path class="st3" d="M392.68,1068.46c0,1.1-0.9,1.99-2,1.99H285.63l-18.54,18.54l-3.99,3.99l-25.35,25.36l-0.53,0.53H120.87
						v-3.99h114.7l21.9-21.9l3.99-3.99l22.52-22.52h106.7C391.78,1066.47,392.68,1067.36,392.68,1068.46z"/>
					<g>
						<path class="st3" d="M390.24,1059.46c4.97,0,8.99,4.03,8.99,8.99s-4.03,8.99-8.99,8.99c-4.97,0-8.99-4.03-8.99-8.99
							S385.27,1059.46,390.24,1059.46z"/>
					</g>
				</g>
				<g>
					<path class="st3" d="M577.96,1312.43c0,1.1-0.89,1.99-1.99,1.99h-43.19l-6.13,6.13l-2.28,2.28l-15.71,15.71l-45.42,45.43
						H304.52l-29.01-29.01h-88.95l-3.92,3.93l-4.88,4.88l-56.89,56.89v-5.64l56.13-56.13l7.91-7.92h92.25l29.01,29.01h155.42
						l62.78-62.78l2.28-2.28l4.48-4.48h44.84C577.07,1310.44,577.96,1311.33,577.96,1312.43z"/>
					<g>
						<path class="st3" d="M575.53,1303.44c4.97,0,8.99,4.03,8.99,8.99s-4.03,8.99-8.99,8.99c-4.97,0-8.99-4.03-8.99-8.99
							S570.56,1303.44,575.53,1303.44z"/>
					</g>
				</g>
				<g>
					<path class="st3" d="M445.78,1307.32c0,1.1-0.89,1.99-1.99,1.99h-36.44l-15.25,15.25l-11.71,11.7l-0.21,0.21h-85.51l-0.21-0.21
						l-27.53-27.52H145.41l-24.54,24.54v-5.64l22.89-22.89h124.82l27.74,27.74h82.21l27.17-27.17h38.09
						C444.89,1305.32,445.78,1306.22,445.78,1307.32z"/>
					<g>
						<path class="st3" d="M443.34,1298.32c4.97,0,8.99,4.03,8.99,8.99s-4.03,8.99-8.99,8.99c-4.97,0-8.99-4.03-8.99-8.99
							S438.37,1298.32,443.34,1298.32z"/>
					</g>
				</g>
				<g>
					<path class="st3" d="M472.28,1295.81c0,1.11-0.89,1.99-1.99,1.99H340.73l-33.1-33.1h-143.8l-2.66-2.66l-3.46-3.45l-15.96-15.96
						h-20.88v-3.99h22.53l20.58,20.58l1.49,1.5h143.81l18.91,18.9l2.82,2.82l11.37,11.38h127.91
						C471.39,1293.82,472.28,1294.72,472.28,1295.81z"/>
					<g>
						<path class="st3" d="M469.84,1286.82c4.97,0,8.99,4.03,8.99,8.99c0,4.97-4.03,8.99-8.99,8.99c-4.97,0-8.99-4.03-8.99-8.99
							C460.85,1290.85,464.88,1286.82,469.84,1286.82z"/>
					</g>
				</g>
			</g>
		</g>
		<g>
			<g>
				<g>
					<path class="st4" d="M1925.2,783.48v3.73h-140.32l-6.52,6.52l-48.2,48.2l-3.72,3.72l-1.21,1.21l-2.28,2.28l-51.27,51.28
						l-2.27,2.27l-2.16,2.17l-50.98,50.97l-43.48,43.48l-0.55,0.54h-139.95c-1.02,0-1.86-0.83-1.86-1.86c0-1.03,0.84-1.87,1.86-1.87
						h138.41l43.29-43.29l2.28-2.28l45.69-45.69l2.17-2.17l1.56-1.56l0.71-0.71l54.77-54.77l62.17-62.17H1925.2z"/>
					<g>
						<path class="st4" d="M1432.71,1006.4c-4.64,0-8.41-3.77-8.41-8.41s3.77-8.41,8.41-8.41c4.64,0,8.41,3.77,8.41,8.41
							S1437.35,1006.4,1432.71,1006.4z"/>
					</g>
				</g>
				<g>
					<path class="st4" d="M1927.45,874.74l-0.42,0.42h-1.83v3.31h-60.81l-3.31-3.31l-3.05-3.05l-26.46-26.46H1616.9l-0.63-0.63
						l-2.28-2.28l-41.28-41.27l-7.74-7.74l-2.27-2.27l-39.47-39.47h-201.13c-1.03,0-1.87-0.84-1.87-1.86c0-1.04,0.84-1.87,1.87-1.87
						h202.67l47.94,47.94l2.64,2.63l32.05,32.06l3.69,3.68l5.95,5.95l1.4,1.41h214.68l1.07,1.07l29.12,29.11l2.63,2.63H1927.45z"/>
					<g>
						<path class="st4" d="M1322.51,758.53c-4.64,0-8.41-3.77-8.41-8.41s3.77-8.41,8.41-8.41s8.41,3.77,8.41,8.41
							S1327.16,758.53,1322.51,758.53z"/>
					</g>
				</g>
				<g>
					<path class="st4" d="M1864.1,836.99h61.09v3.72h-62.64l-30.65-30.65l-16.33-16.33l-2.27-2.27l-4.25-4.25l-3.73-3.73
						l-24.41-24.41h-0.01l-2.14-2.15l-4.22-4.22l-1.72-1.72l-0.43-0.43l-11.94-11.94h-124.89l-52.85,52.85l-2.27,2.27l-5.1,5.1
						l-23.1,23.1h-153.91c-1.01-0.02-1.82-0.84-1.82-1.86s0.81-1.84,1.82-1.86h152.37l19.37-19.37l2.63-2.64l2.48-2.47l2.27-2.27
						l36.53-36.54l19.49-19.49l0.45-0.45l0.1-0.09h127.98l10.59,10.58l0.23,0.23l2.2,2.21l0.44,0.43l0.18,0.18l1.54,1.54l4.21,4.21
						v0.01l2.16,2.15l27.05,27.05l3.72,3.73l17.58,17.58l2.28,2.28l11.29,11.29l14.18,14.18l2.1,2.1L1864.1,836.99z"/>
					<g>
						<path class="st4" d="M1398.79,828.48c-4.64,0-8.41-3.77-8.41-8.41c0-4.64,3.77-8.41,8.41-8.41c4.64,0,8.41,3.77,8.41,8.41
							C1407.2,824.71,1403.44,828.48,1398.79,828.48z"/>
					</g>
				</g>
				<g>
					<path class="st4" d="M1925.2,964.22v3.73h-127.18l-63.08-63.09h-163.34l-42.29-42.29h-51.58c-1.03,0-1.86-0.84-1.86-1.87
						c0-1.02,0.83-1.86,1.86-1.86h53.13l41.58,41.58l0.71,0.71h163.33l63.09,63.09H1925.2z"/>
					<g>
						<path class="st4" d="M1478.15,869.11c-4.64,0-8.41-3.77-8.41-8.41s3.77-8.41,8.41-8.41c4.64,0,8.41,3.77,8.41,8.41
							S1482.79,869.11,1478.15,869.11z"/>
					</g>
				</g>
				<g>
					<path class="st4" d="M1925.2,1030.94v3.73h-139.48c-1.03,0-1.86-0.84-1.86-1.86c0-1.03,0.83-1.87,1.86-1.87H1925.2z"/>
					<g>
						<path class="st4" d="M1786.14,1041.22c-4.64,0-8.41-3.77-8.41-8.41s3.77-8.41,8.41-8.41c4.64,0,8.41,3.77,8.41,8.41
							S1790.78,1041.22,1786.14,1041.22z"/>
					</g>
				</g>
				<g>
					<path class="st4" d="M1925.2,696.53v3.73h-101.65l-0.09,0.09l-9.46,9.47l-2.29,2.28l-0.35,0.35l-33.03,33.02l-2.86,2.87
						l-0.19,0.18l-2.45,2.46l-55.3,55.3h-81.09c-1.03,0-1.87-0.84-1.87-1.86c0-1.03,0.84-1.86,1.87-1.86h79.54l6.97-6.97l4.12-4.13
						l9.13-9.13l3.05-3.04l30.75-30.77l0.19-0.18l2.64-2.64l0.23-0.23l35.66-35.66l2.64-2.63l3.1-3.1l2.15-2.16l4.22-4.21l1.17-1.18
						H1925.2z"/>
					<g>
						<path class="st4" d="M1636.85,812.83c-4.64,0-8.41-3.77-8.41-8.41s3.77-8.41,8.41-8.41c4.64,0,8.41,3.77,8.41,8.41
							S1641.5,812.83,1636.85,812.83z"/>
					</g>
				</g>
				<g>
					<path class="st4" d="M1925.2,937.82v5.27l-21.13,21.13l-3.73,3.73l-30.15,30.15h-145.94c-0.51,0-0.97-0.2-1.3-0.54
						c-0.35-0.33-0.56-0.81-0.56-1.33c0-0.51,0.21-0.98,0.56-1.32c0.33-0.33,0.79-0.54,1.3-0.54h144.4l26.42-26.42L1925.2,937.82z"
						/>
					<g>
						<path class="st4" d="M1724.67,1004.64c-4.64,0-8.41-3.77-8.41-8.41c0-4.64,3.77-8.41,8.41-8.41c4.64,0,8.41,3.77,8.41,8.41
							C1733.08,1000.88,1729.32,1004.64,1724.67,1004.64z"/>
					</g>
				</g>
				<g>
					<path class="st4" d="M1598.77,624.52h5.28l-41.79,41.79h-63.14c-1.04,0-1.87-0.84-1.87-1.87c0-1.03,0.83-1.86,1.87-1.86h61.59
						L1598.77,624.52z"/>
					<g>
						<path class="st4" d="M1499.54,672.85c-4.64,0-8.41-3.77-8.41-8.41s3.77-8.41,8.41-8.41c4.64,0,8.41,3.77,8.41,8.41
							S1504.19,672.85,1499.54,672.85z"/>
					</g>
				</g>
				<g>
					<path class="st4" d="M1893.01,675.41h32.18v3.73h-33.72l-16.7-16.7l-20.43-20.42h-110.72l-11.42,11.42l-5.3,5.3l-1.3,1.29
						l-0.38,0.38l-0.58,0.58l-1.7,1.7l-15.68,15.68h-54.1c-1.03,0-1.86-0.83-1.86-1.86c0-1.03,0.83-1.86,1.86-1.86h52.56
						l12.86-12.86l3.04-3.05l20.45-20.45h113.81l24.16,24.15l3.05,3.05L1893.01,675.41z"/>
					<g>
						<path class="st4" d="M1653.59,684.92c-4.64,0-8.41-3.77-8.41-8.41s3.77-8.41,8.41-8.41c4.64,0,8.41,3.77,8.41,8.41
							S1658.23,684.92,1653.59,684.92z"/>
					</g>
				</g>
				<g>
					<path class="st4" d="M1925.2,734.36v3.73h-88.21l-22.94-22.94l-2.69-2.7l-2.64-2.64l-3.07-3.06l-12.97-12.97H1617.7
						c-0.58,0-1.09-0.26-1.43-0.68c-0.26-0.3-0.41-0.69-0.43-1.11c-0.01-0.03-0.01-0.05-0.01-0.08c0-0.46,0.16-0.87,0.44-1.19
						c0.34-0.41,0.86-0.67,1.43-0.67h176.53l5.54,5.54l6.37,6.37l7.86,7.86l2.28,2.28l3.05,3.05l0.6,0.6l2.15,2.15l9.83,9.83
						l2.28,2.28l4.35,4.35H1925.2z"/>
					<g>
						<path class="st4" d="M1618.11,700.32c-4.64,0-8.41-3.77-8.41-8.41c0-4.64,3.77-8.41,8.41-8.41s8.41,3.77,8.41,8.41
							C1626.52,696.55,1622.75,700.32,1618.11,700.32z"/>
					</g>
				</g>
			</g>
			<g>
				<g>
					<path class="st3" d="M1925.2,712.1v3.05h-100.36l-2.76,2.75l-2.63,2.64h-0.01l-24.93,24.93l-3.05,3.05l-7.9,7.91l-2.64,2.64
						h-0.01l-20.21,20.22l-3.04,3.04l-9.13,9.13l-2.27,2.27l-21.03,21.02l-2.28,2.28l-19.55,19.55h-78.14
						c-0.84,0-1.52-0.68-1.52-1.52c0-0.84,0.68-1.52,1.52-1.52h76.88l20.81-20.81l2.28-2.28l16.72-16.72l2.27-2.27l9.13-9.13
						l3.04-3.04l22.38-22.37l2.63-2.64v-0.01l5.75-5.75l3.05-3.05l27.09-27.08v-0.01l2.64-2.63l3.2-3.21l0.45-0.44H1925.2z"/>
					<g>
						<path class="st3" d="M1625.6,841.94c-3.8,0-6.88-3.08-6.88-6.88c0-3.8,3.08-6.88,6.88-6.88c3.8,0,6.88,3.08,6.88,6.88
							C1632.48,838.86,1629.4,841.94,1625.6,841.94z"/>
					</g>
				</g>
				<g>
					<path class="st3" d="M1871.13,764.22h54.07v3.05h-55.34l-18.73-18.75h-122.61l-3.29-3.29l-2.28-2.28l-4.34-4.34l-3.73-3.72
						l-11.4-11.41l-2.16-2.16l-26.29-26.29h-112.7c-0.85,0-1.52-0.68-1.52-1.52c0-0.85,0.67-1.52,1.52-1.52h113.97l1.79,1.79
						l25.39,25.39l2.16,2.15l13.56,13.57l3.73,3.72l0.02,0.02l2.28,2.28l4.56,4.56h122.6L1871.13,764.22z"/>
					<g>
						<path class="st3" d="M1562.67,700.38c-3.8,0-6.88-3.08-6.88-6.88c0-3.8,3.08-6.88,6.88-6.88c3.8,0,6.88,3.08,6.88,6.88
							C1569.54,697.3,1566.46,700.38,1562.67,700.38z"/>
					</g>
				</g>
				<g>
					<path class="st3" d="M1925.2,741.86v3.84h-56.38l-7.62-7.61l-3.72-3.73l-19.21-19.21l-3.06-3.05l-1.02-1.02l-2.28-2.28
						l-8.45-8.45v-0.01l-5.69-5.69h-0.01l-2.15-2.16l-5.1-5.1h-70.94l-2.66,2.66l-3.73,3.73l-40.75,40.75l-0.35,0.36l-0.1,0.09
						h-86.09c-0.84,0-1.52-0.68-1.52-1.53c0-0.84,0.68-1.52,1.52-1.52h84.83l10.6-10.61l2.16-2.15l19.47-19.47l2.28-2.28l3.64-3.64
						l3.73-3.73l5.28-5.28l0.43-0.43h73.46l0.43,0.43l7.72,7.72l4.04,4.04l3.73,3.73l4.22,4.22l2.28,2.28l5.34,5.34l3.05,3.05
						l19.22,19.21l3.73,3.73l4.56,4.56h54.32L1925.2,741.86z"/>
					<g>
						<path class="st3" d="M1606.23,740.33c-3.8,0-6.88-3.08-6.88-6.88c0-3.8,3.08-6.88,6.88-6.88c3.8,0,6.88,3.08,6.88,6.88
							C1613.1,737.25,1610.03,740.33,1606.23,740.33z"/>
					</g>
				</g>
				<g>
					<path class="st3" d="M1925.2,815.32v3.04h-93.23l-0.06-0.06l-24.58-24.57l-2.27-2.27l-4.25-4.25l-3.72-3.73l-1.15-1.15h-93.28
						l-24.16-24.15h-27.29c-0.85,0-1.53-0.68-1.53-1.52c0-0.84,0.68-1.53,1.53-1.53h28.55l24.16,24.16h93.28l36.03,36.03H1925.2z"/>
					<g>
						<path class="st3" d="M1651.55,763.53c-3.8,0-6.88-3.08-6.88-6.88c0-3.8,3.08-6.88,6.88-6.88s6.88,3.08,6.88,6.88
							C1658.42,760.46,1655.34,763.53,1651.55,763.53z"/>
					</g>
				</g>
				<g>
					<path class="st3" d="M1925.2,874.74h2.25l-0.42,0.42h-90.32c-0.84,0-1.53-0.68-1.53-1.52s0.69-1.53,1.53-1.53h88.49V874.74z"/>
					<g>
						<path class="st3" d="M1837.05,880.51c-3.8,0-6.88-3.08-6.88-6.88c0-3.8,3.08-6.88,6.88-6.88c3.8,0,6.88,3.08,6.88,6.88
							C1843.92,877.43,1840.85,880.51,1837.05,880.51z"/>
					</g>
				</g>
				<g>
					<path class="st3" d="M1922.74,662.44l2.45-2.45v4.31l-1.19,1.19h-77.09l-5,4.99l-2.15,2.16l-5.58,5.58l-2.28,2.28l-2,2
						l-2.27,2.27l-7.72,7.72l-2.15,2.16h-0.01l-9.47,9.46l-2.64,2.64l-19.28,19.29h-44.53c-0.84,0-1.52-0.68-1.52-1.52
						c0-0.85,0.68-1.53,1.52-1.53h43.27l18.39-18.39l2.64-2.64l9.47-9.47l2.15-2.16l5.56-5.56l2.27-2.27l6.32-6.32l2.28-2.28
						l3.42-3.42l2.16-2.15l5.89-5.89H1922.74z"/>
					<g>
						<path class="st3" d="M1742.18,731.39c-3.8,0-6.88-3.08-6.88-6.88c0-3.8,3.08-6.88,6.88-6.88c3.8,0,6.88,3.08,6.88,6.88
							C1749.06,728.31,1745.98,731.39,1742.18,731.39z"/>
					</g>
				</g>
				<g>
					<path class="st3" d="M1909.3,795.52h15.89v3.05h-14.63l-16.75,16.75l-3.04,3.04l-17.22,17.22h-81.56
						c-0.85,0-1.53-0.68-1.53-1.52c0-0.84,0.68-1.52,1.53-1.52h80.3l14.18-14.18l3.04-3.04L1909.3,795.52z"/>
					<g>
						<path class="st3" d="M1792.33,840.94c-3.8,0-6.88-3.08-6.88-6.88c0-3.8,3.08-6.88,6.88-6.88c3.8,0,6.88,3.08,6.88,6.88
							C1799.21,837.86,1796.13,840.94,1792.33,840.94z"/>
					</g>
				</g>
				<g>
					<path class="st3" d="M1704.89,624.52h4.3l-24.56,24.56h-34.28c-0.84,0-1.52-0.68-1.52-1.52c0-0.84,0.68-1.52,1.52-1.52h33.02
						L1704.89,624.52z"/>
					<g>
						<path class="st3" d="M1650.69,654.43c-3.8,0-6.88-3.08-6.88-6.88c0-3.8,3.08-6.88,6.88-6.88c3.8,0,6.88,3.08,6.88,6.88
							C1657.57,651.36,1654.49,654.43,1650.69,654.43z"/>
					</g>
				</g>
				<g>
					<path class="st3" d="M1886.58,650.38h38.61v3.05h-39.87l-21.2-21.21h-62.85l-6.06,6.07l-3.73,3.73l-10.97,10.97h-29.12
						c-0.84,0-1.52-0.68-1.52-1.52c0-0.84,0.68-1.53,1.52-1.53h27.86l11.65-11.65l9.11-9.11h65.37L1886.58,650.38z"/>
					<g>
						<path class="st3" d="M1751.74,658.34c-3.8,0-6.88-3.08-6.88-6.88c0-3.8,3.08-6.88,6.88-6.88c3.8,0,6.88,3.08,6.88,6.88
							C1758.61,655.26,1755.54,658.34,1751.74,658.34z"/>
					</g>
				</g>
				<g>
					<path class="st3" d="M1855.47,684.05h69.72v3.04h-70.98l-2.32-2.32l-2.27-2.27l-9.86-9.86l-2.16-2.16l-3.42-3.41l-2.28-2.28
						l-3-3h-97.77c-0.84,0-1.52-0.69-1.52-1.53s0.68-1.52,1.52-1.52h99.04l1.73,1.73l2.28,2.28l5.58,5.58l2.15,2.15l12.01,12.02
						L1855.47,684.05z"/>
					<g>
						<path class="st3" d="M1731.48,667.14c-3.8,0-6.88-3.08-6.88-6.88s3.08-6.88,6.88-6.88c3.8,0,6.88,3.08,6.88,6.88
							S1735.28,667.14,1731.48,667.14z"/>
					</g>
				</g>
			</g>
		</g>
	</g>
	<g>
		<polygon class="st5" points="1648.49,1143.79 1577.72,1143.79 1542.34,1205.07 1577.72,1266.35 1648.49,1266.35 1683.87,1205.07 
					"/>
		<polygon class="st1" points="1903.59,1423.48 1712.59,1423.48 1722.95,1405.55 1725.22,1401.6 1747.97,1362.2 1868.21,1362.2 		
			"/>
		<polygon class="st6" points="1828.81,1170.23 1724.77,1170.23 1672.76,1260.32 1724.77,1350.41 1828.81,1350.41 1880.82,1260.32 
					"/>
		<polygon class="st7" points="1699.58,1365.55 1666.14,1423.48 1560.07,1423.48 1526.63,1365.55 1542.22,1338.54 1543.53,1336.26 
			1569.86,1290.66 1656.34,1290.66 1682.68,1336.26 1683.98,1338.54 		"/>
		<polygon class="st1" points="1542.74,1232.41 1494.07,1232.41 1469.74,1274.56 1494.07,1316.71 1542.74,1316.71 1567.08,1274.56 
					"/>
	</g>
	<g>
		<polygon class="st8" points="321.14,804.42 366.65,804.42 389.41,765 366.65,725.58 321.14,725.58 298.38,765 		"/>
		<polygon class="st8" points="157.05,624.52 279.9,624.52 273.25,636.05 271.78,638.59 257.15,663.94 179.81,663.94 		"/>
		<polygon class="st9" points="205.16,787.41 272.07,787.41 305.52,729.46 272.07,671.52 205.16,671.52 171.7,729.46 		"/>
		<polygon class="st7" points="288.27,661.78 309.79,624.52 378,624.52 399.52,661.78 389.48,679.15 388.64,680.62 371.71,709.95 
			316.08,709.95 299.15,680.62 298.3,679.15 		"/>
		<polygon class="st10" points="389.15,747.42 420.46,747.42 436.11,720.3 420.46,693.19 389.15,693.19 373.5,720.3 		"/>
	</g>
</g>
</svg>
